<svg width="38" height="38" viewBox="0 0 38 38" fill="none" xmlns="http://www.w3.org/2000/svg">
<path d="M0 33.3867C0.252778 33.0913 0.486722 32.7771 0.760317 32.5025C3.46455 29.7887 6.17473 27.0818 8.88391 24.3729C9.58674 23.6702 10.1419 23.6702 10.8496 24.3819C11.032 24.5652 11.1996 24.7635 11.3413 24.9171C12.0887 24.1707 12.8005 23.4591 13.5043 22.7563C13.0493 22.0615 12.5031 21.3271 12.059 20.5361C7.85694 13.0597 11.5564 3.46911 19.7038 0.7523C20.6892 0.424222 21.7399 0.293387 22.7609 0.0693821C22.8432 0.051541 22.9225 0.022797 23.0028 0C23.7691 0 24.5363 0 25.3026 0C25.9787 0.121914 26.6696 0.193279 27.3298 0.372681C33.0485 1.93279 36.6281 5.59715 37.7551 11.4203C39.1876 18.8194 34.1816 26.0371 26.7548 27.4198C22.6063 28.1919 18.8434 27.2295 15.5077 24.6306C15.4115 24.5553 15.3154 24.48 15.247 24.4265C14.5204 25.154 13.8086 25.8666 13.0612 26.616C13.2258 26.7736 13.425 26.9559 13.6153 27.1462C14.3182 27.848 14.3152 28.404 13.6044 29.1147C11.5852 31.1347 9.56493 33.1537 7.54469 35.1738C6.74868 35.9697 5.95565 36.7676 5.15667 37.5595C4.55893 38.1532 3.95028 38.1453 3.34857 37.5446C2.47326 36.6714 1.59399 35.8012 0.728596 34.919C0.465905 34.6504 0.241874 34.3441 0 34.0547C0 33.8317 0 33.6097 0 33.3867ZM24.4313 25.4266C30.9371 25.2491 35.9887 19.8423 35.7458 13.4086C35.502 6.94713 30.1133 2.00812 23.7344 2.24302C17.1007 2.48784 11.9906 8.2416 12.6102 14.9211C13.1613 20.8543 18.2199 25.5524 24.4303 25.4266H24.4313ZM4.26749 35.2035C6.62576 32.8485 8.99494 30.4825 11.3235 28.1582C10.8288 27.6626 10.3193 27.1522 9.83357 26.6665C7.49611 29.0037 5.12793 31.3716 2.78155 33.7177C3.26827 34.2044 3.77284 34.7089 4.26749 35.2045V35.2035Z" fill="white"/>
<path d="M14.9023 13.5626C14.9564 9.37607 18.0249 5.626 22.1158 4.70376C22.7903 4.55202 23.4952 4.50965 24.1893 4.47221C24.8254 4.43772 25.3308 4.95599 25.3337 5.56491C25.3367 6.17186 24.8411 6.65565 24.1972 6.67535C20.7689 6.77585 18.0632 8.96126 17.3003 12.2689C17.1931 12.732 17.1302 13.2168 17.1331 13.6907C17.1371 14.3568 16.6573 14.9164 15.9769 14.9017C15.3251 14.8869 14.9004 14.3647 14.9033 13.6188C14.9033 13.5695 14.9033 13.5203 14.9033 13.5626H14.9023Z" fill="white"/>
</svg>
